<svg width="20" height="24" viewBox="0 0 20 24" fill="none" xmlns="http://www.w3.org/2000/svg">
<path d="M6.5 9.49997C6.5 10.051 6.628 10.573 6.856 11.037C6.366 11.665 6.061 12.444 6.02 13.293C5.079 12.305 4.5 10.969 4.5 9.50097C4.5 6.08997 7.622 3.39397 11.159 4.11997C13.241 4.54797 14.928 6.22497 15.372 8.30397C15.506 8.93197 15.531 9.54697 15.463 10.135C15.405 10.633 14.968 11.001 14.466 11.001H14.421C13.829 11.001 13.413 10.474 13.478 9.88597C13.522 9.49097 13.499 9.07597 13.398 8.65297C13.1 7.39997 12.078 6.38497 10.823 6.09597C8.537 5.57097 6.499 7.30297 6.499 9.50097L6.5 9.49997ZM2.61 8.20497C2.884 6.61197 3.663 5.15997 4.871 4.02697C6.4 2.59397 8.402 1.88597 10.501 2.01597C14.454 2.27197 17.545 5.73497 17.499 9.88097C17.48 11.617 16.026 12.999 14.291 12.999H11.885C11.641 12.17 10.883 11.56 9.975 11.56C8.87 11.56 7.975 12.455 7.975 13.56C7.975 14.665 8.87 15.56 9.975 15.56C10.513 15.56 11 15.345 11.359 14.999H14.291C17.11 14.999 19.459 12.754 19.499 9.93597C19.573 4.71497 15.651 0.344971 10.63 0.0209707C7.966 -0.152029 5.439 0.752971 3.504 2.56897C2.005 3.97397 1.008 5.83397 0.648996 7.83497C0.539996 8.44297 1.021 9.00097 1.638 9.00097C2.11 9.00097 2.531 8.67197 2.61 8.20597V8.20497ZM10 17C6.305 17 3.108 19.292 2.045 22.702C1.88 23.229 2.175 23.79 2.702 23.955C3.228 24.114 3.789 23.824 3.954 23.298C4.305 22.171 5.006 21.209 5.906 20.473L7.307 22.574C7.662 23.106 8.443 23.106 8.798 22.574L10.052 20.692L11.306 22.574C11.661 23.106 12.442 23.106 12.797 22.574L14.16 20.53C15.027 21.259 15.702 22.2 16.044 23.298C16.178 23.726 16.572 24 16.999 24C17.098 24 17.197 23.985 17.297 23.955C17.824 23.79 18.118 23.229 17.954 22.702C16.891 19.292 13.694 17 9.999 17H10Z" fill="white"/>
</svg>
