<svg width="36" height="36" viewBox="0 0 36 36" fill="none" xmlns="http://www.w3.org/2000/svg">
<path d="M10.2949 13.4986C10.1019 13.0295 9.64975 12.7266 9.14259 12.7266C9.14224 12.7266 9.14182 12.7266 9.1414 12.7266C8.63381 12.727 8.18163 13.0309 7.9894 13.5007C7.98609 13.5086 7.98293 13.5167 7.9799 13.5247L4.81155 21.8434C4.6042 22.3877 4.87743 22.997 5.42179 23.2043C5.96615 23.4117 6.57548 23.1384 6.78276 22.5941L7.31313 21.2016H10.9477L11.472 22.5911C11.6777 23.1361 12.2862 23.4111 12.8312 23.2054C13.3762 22.9998 13.6512 22.3913 13.4456 21.8463L10.3061 13.5273C10.3025 13.5177 10.2988 13.5082 10.2949 13.4986ZM8.11666 19.0923L9.13886 16.4084L10.1518 19.0923H8.11666Z" fill="#677185"/>
<path d="M31.2574 22.2188C31.2574 21.6363 30.7851 21.1641 30.2027 21.1641H27.7021V19.0547H29.9405C30.523 19.0547 30.9952 18.5825 30.9952 18C30.9952 17.4175 30.523 16.9453 29.9405 16.9453H27.7021V14.8359H30.2027C30.7851 14.8359 31.2574 14.3637 31.2574 13.7812C31.2574 13.1988 30.7851 12.7266 30.2027 12.7266H26.6475C26.065 12.7266 25.5928 13.1988 25.5928 13.7812V22.2188C25.5928 22.8012 26.065 23.2734 26.6475 23.2734H30.2027C30.7851 23.2734 31.2574 22.8012 31.2574 22.2188Z" fill="#677185"/>
<path d="M23.1321 16.9453H20.6081C20.0256 16.9453 19.5534 17.4175 19.5534 18C19.5534 18.5825 20.0256 19.0547 20.6081 19.0547H21.9555C21.6864 20.1727 20.9465 21.1641 19.4902 21.1641C17.7456 21.1641 16.3262 19.7447 16.3262 18C16.3262 16.2553 17.7456 14.8359 19.4902 14.8359C20.1245 14.8359 20.7359 15.0225 21.2586 15.3757C21.7413 15.7018 22.3969 15.5748 22.7229 15.0922C23.049 14.6095 22.922 13.9539 22.4394 13.6278C21.5667 13.0382 20.5469 12.7266 19.4902 12.7266C16.5825 12.7266 14.2168 15.0922 14.2168 18C14.2168 20.9078 16.5825 23.2734 19.4902 23.2734C22.2555 23.2734 24.1868 21.1049 24.1868 18C24.1868 17.4175 23.7145 16.9453 23.1321 16.9453Z" fill="#677185"/>
<path d="M33.931 26.3813C35.2845 23.8163 36 20.918 36 18C36 13.192 34.1276 8.67185 30.728 5.27203C27.3281 1.87235 22.808 0 18 0C13.192 0 8.67185 1.87235 5.27203 5.27203C1.87235 8.67185 0 13.192 0 18C0 22.808 1.87235 27.3281 5.27203 30.728C8.67185 34.1276 13.192 36 18 36C18.5825 36 19.0547 35.5278 19.0547 34.9453C19.0547 34.3628 18.5825 33.8906 18 33.8906C9.23787 33.8906 2.10938 26.7621 2.10938 18C2.10938 9.23787 9.23787 2.10938 18 2.10938C26.7621 2.10938 33.8906 9.23787 33.8906 18C33.8906 22.3547 32.0846 26.5008 28.9749 29.4784L29.0388 28.0316C29.0644 27.4497 28.6135 26.9572 28.0316 26.9314C27.4497 26.9058 26.9571 27.3567 26.9314 27.9386L26.7626 31.7638C26.7369 32.3472 27.1901 32.8404 27.7735 32.8641L31.9364 33.033C32.5184 33.0566 33.0093 32.604 33.033 32.0219C33.0566 31.44 32.6039 30.949 32.0219 30.9253L30.5738 30.8666C31.9166 29.5548 33.057 28.0375 33.931 26.3813Z" fill="#677185"/>
</svg>
