<svg width="35" height="35" viewBox="0 0 35 35" fill="none" xmlns="http://www.w3.org/2000/svg">
<path d="M31.1067 4.26038H29.1856C29.2145 3.66819 29.2433 3.07601 29.2433 2.46928C29.2433 1.8771 29.0267 1.28482 28.6367 0.851508C28.2467 0.418193 27.7267 0.158203 27.1633 0.158203H7.83674C7.27338 0.158203 6.73895 0.418193 6.34892 0.851508C5.97335 1.28482 5.74228 1.8771 5.75673 2.46928C5.75673 3.07601 5.78556 3.66819 5.81448 4.26038H3.89334C2.18891 4.26038 0.787842 5.64707 0.787842 7.36597V9.48935C0.787842 14.7471 4.81781 19.0659 9.96003 19.5138C11.4621 21.868 13.2964 23.5003 15.3329 24.1791V26.0655C12.6995 26.8947 10.7303 29.1612 10.3362 31.9523H8.27146C7.47307 31.9523 6.82702 32.599 6.82702 33.3967C6.82702 34.1944 7.47307 34.8412 8.27146 34.8412C27.9788 34.8428 20.4899 34.8413 26.7276 34.8412C27.526 34.8412 28.1721 34.1944 28.1721 33.3967C28.1721 32.599 27.526 31.9523 26.7276 31.9523H24.6666C24.2889 29.2428 22.5274 26.9508 19.6662 26.0607V24.1794C19.666 24.1795 19.6664 24.1793 19.6662 24.1794C21.8041 23.4716 23.7256 21.7093 25.2567 19.1527C30.4133 17.7515 34.2122 13.0426 34.2122 7.45263V7.36597C34.2122 5.64707 32.8111 4.26038 31.1067 4.26038ZM19.32 7.59713L21.1111 7.85712C21.5445 7.91486 21.8767 8.21823 22.0211 8.62263C22.1511 9.02711 22.0356 9.47489 21.7323 9.77816L20.4323 11.0493L20.7356 12.826C20.8078 13.2593 20.6345 13.6782 20.3022 13.9382C19.9199 14.1841 19.4931 14.2377 19.1034 14.0104L17.5 13.1727L15.8967 14.0104C15.5067 14.2126 15.059 14.1838 14.7122 13.9382C14.3656 13.6782 14.1922 13.2593 14.2644 12.826L14.5678 11.0348L13.2678 9.77816C12.9645 9.47489 12.8489 9.02711 12.979 8.62263C13.1234 8.21823 13.47 7.91486 13.8889 7.85712L15.6801 7.59713C15.7519 7.45212 16.5608 5.81989 16.4889 5.9649C16.6767 5.58933 17.0667 5.34371 17.5 5.34371C17.9334 5.34371 18.3233 5.57487 18.5111 5.9649C18.583 6.10991 19.3919 7.74214 19.32 7.59713ZM3.67673 9.48935V7.36597C3.67673 7.25039 3.77776 7.14926 3.89334 7.14926H6.04555C6.42112 10.5582 7.20118 13.6204 8.25559 16.1915C5.58332 15.1515 3.67673 12.5371 3.67673 9.48935ZM31.3233 7.45263C31.3233 10.6737 29.6478 13.5193 27.1345 15.1805C28.0011 12.826 28.6222 10.1104 28.9545 7.14926H31.1067C31.2222 7.14926 31.3233 7.25039 31.3233 7.36597V7.45263Z" fill="#677185"/>
</svg>
