<svg width="52" height="52" viewBox="0 0 52 52" fill="none" xmlns="http://www.w3.org/2000/svg">
<path d="M39.9147 5.79614C35.6237 5.79614 32.0954 9.12231 31.7714 13.3311C31.7562 13.5393 31.748 13.7505 31.748 13.9628C31.748 20.1815 38.9123 27.366 38.9844 27.4381C39.2251 27.6768 39.547 27.8108 39.8913 27.8159C39.8995 27.8169 39.9066 27.8169 39.9147 27.8169C40.2681 27.8169 40.5982 27.6818 40.845 27.4371C40.9171 27.366 48.0813 20.1804 48.0813 13.9628C48.0813 9.4595 44.418 5.79614 39.9147 5.79614ZM39.9147 17.5662C37.9271 17.5662 36.3102 15.9493 36.3102 13.9628C36.3102 11.9752 37.9271 10.3583 39.9147 10.3583C41.9023 10.3583 43.5191 11.9752 43.5191 13.9628C43.5191 15.9493 41.9023 17.5662 39.9147 17.5662Z" fill="#677185"/>
<path d="M14.0265 15.2221C14.7882 13.7729 15.6555 12.5764 16.6001 11.6553C12.2877 12.9126 8.65482 15.7757 6.39404 19.5528H12.3202C12.7712 17.9836 13.3429 16.5252 14.0265 15.2221Z" fill="#677185"/>
<path d="M30.2248 13.9628C30.2248 13.4539 30.2644 12.9542 30.3406 12.4657C30.1638 12.3692 29.9851 12.2758 29.8033 12.1854C29.6185 12.5409 29.1838 12.6922 28.8141 12.5246C28.0432 12.1742 27.2541 11.8828 26.4497 11.6492C27.3963 12.5724 28.2656 13.7698 29.0284 15.2221C29.717 16.5353 30.2928 18.006 30.7458 19.5893C31.0525 19.6868 31.2749 19.9742 31.2749 20.3145C31.2749 20.5146 31.1967 20.6964 31.0698 20.8325C31.5878 23.013 31.8833 25.3753 31.9341 27.8169H36.1713C36.5917 27.8169 36.933 28.1582 36.933 28.5786C36.933 28.9991 36.5917 29.3403 36.1713 29.3403H31.9341C31.8853 31.6915 31.6091 33.9685 31.1267 36.081H37.4896C38.2878 34.3789 38.8241 32.5213 39.0435 30.5571C39.0892 30.1488 39.4507 29.8512 39.857 29.8817C39.8702 29.7019 39.8803 29.5211 39.8885 29.3393C39.1399 29.3332 38.4392 29.0428 37.911 28.5197C37.5972 28.2079 30.2248 20.8182 30.2248 13.9628Z" fill="#677185"/>
<path d="M29.0285 41.9341C28.2647 43.3885 27.3953 44.5859 26.4478 45.5091C30.7621 44.2619 34.4133 41.4111 36.6802 37.6045H30.7347C30.2838 39.1736 29.712 40.6311 29.0285 41.9341Z" fill="#677185"/>
<path d="M29.1472 37.6045H13.9077C14.3089 38.9126 14.8004 40.1293 15.3763 41.2262C17.0612 44.4366 19.2458 46.2038 21.5269 46.2038C23.809 46.2038 25.9937 44.4366 27.6796 41.2262C28.2555 40.1293 28.746 38.9126 29.1472 37.6045Z" fill="#677185"/>
<path d="M14.0265 41.9341C13.3429 40.6311 12.7712 39.1736 12.3202 37.6045H6.39404C8.65482 41.3806 12.2877 44.2446 16.6001 45.502C15.6555 44.5798 14.7882 43.3844 14.0265 41.9341Z" fill="#677185"/>
<path d="M11.1207 29.3403H3.91895C4.02152 31.7423 4.60754 34.0203 5.58051 36.081H11.9282C11.4457 33.9685 11.1695 31.6915 11.1207 29.3403Z" fill="#677185"/>
<path d="M13.4911 36.081H29.5633C30.0691 33.9868 30.3586 31.7057 30.4104 29.3403H12.644C12.6958 31.7057 12.9853 33.9868 13.4911 36.081Z" fill="#677185"/>
<path d="M29.5633 21.0762H13.4911C12.9853 23.1704 12.6958 25.4505 12.644 27.8169H30.4104C30.3586 25.4505 30.0691 23.1704 29.5633 21.0762Z" fill="#677185"/>
<path d="M11.9282 21.0762H5.58051C4.60754 23.1369 4.02152 25.4149 3.91895 27.8169H11.1207C11.1695 25.4657 11.4457 23.1887 11.9282 21.0762Z" fill="#677185"/>
<path d="M13.9077 19.5527H29.1472C28.746 18.2446 28.2555 17.0279 27.6796 15.931C25.9937 12.7206 23.809 10.9524 21.5269 10.9524C19.2458 10.9524 17.0612 12.7206 15.3763 15.931C14.8004 17.0279 14.3089 18.2446 13.9077 19.5527Z" fill="#677185"/>
</svg>
