<svg width="34" height="35" viewBox="0 0 34 35" fill="none" xmlns="http://www.w3.org/2000/svg">
<path d="M30.9808 4.48084C28.5551 1.67637 23.3283 0 17.0016 0H16.9999C10.6724 0 5.44563 1.67472 3.01913 4.48084C-1.00651 9.13779 -1.00651 21.4854 3.01995 26.1441C3.8217 27.0207 4.76772 27.7535 5.81696 28.3106L6.38267 31.7114C6.47566 32.2722 6.70775 32.8008 7.05772 33.2488C7.4077 33.6967 7.86439 34.0498 8.38605 34.2758C8.9077 34.5017 9.47766 34.5932 10.0438 34.542C10.61 34.4908 11.1543 34.2985 11.6269 33.9827L16.2756 30.8824C16.5596 30.6994 16.8913 30.6041 17.2292 30.6083C23.4579 30.5668 28.5983 28.8971 30.9808 26.1424C35.0064 21.4855 35.0064 9.13779 30.9808 4.48084ZM16.9999 6.37984C17.4206 6.37984 17.8317 6.50456 18.1814 6.73824C18.5312 6.97192 18.8037 7.30405 18.9647 7.69263C19.1256 8.08122 19.1678 8.50881 19.0857 8.92134C19.0036 9.33386 18.8011 9.71279 18.5037 10.0102C18.2063 10.3076 17.8274 10.5102 17.4148 10.5922C17.0023 10.6743 16.5747 10.6321 16.1861 10.4712C15.7975 10.3102 15.4654 10.0377 15.2317 9.68794C14.9981 9.33822 14.8733 8.92706 14.8733 8.50645C14.8733 8.22718 14.9283 7.95064 15.0352 7.69262C15.1421 7.4346 15.2987 7.20016 15.4962 7.00268C15.6937 6.8052 15.9281 6.64856 16.1861 6.54169C16.4441 6.43483 16.7207 6.37983 16.9999 6.37984ZM18.7012 24.6687H15.2987C14.8474 24.6687 14.4147 24.4895 14.0957 24.1704C13.7766 23.8514 13.5974 23.4186 13.5974 22.9674C13.5974 22.5162 13.7766 22.0835 14.0957 21.7644C14.4147 21.4454 14.8474 21.2661 15.2987 21.2661V16.1623C14.8474 16.1623 14.4147 15.983 14.0957 15.664C13.7766 15.3449 13.5974 14.9122 13.5974 14.461C13.5974 14.0098 13.7766 13.577 14.0957 13.258C14.4147 12.9389 14.8474 12.7597 15.2987 12.7597H16.9999C17.2234 12.7596 17.4446 12.8036 17.6511 12.8891C17.8575 12.9745 18.0451 13.0999 18.2031 13.2578C18.3611 13.4158 18.4864 13.6034 18.5719 13.8098C18.6573 14.0163 18.7013 14.2375 18.7012 14.461V21.2661C19.1524 21.2661 19.5852 21.4454 19.9042 21.7644C20.2233 22.0835 20.4025 22.5162 20.4025 22.9674C20.4025 23.4186 20.2233 23.8514 19.9042 24.1704C19.5852 24.4895 19.1524 24.6687 18.7012 24.6687Z" fill="#677185"/>
</svg>
