<svg width="31" height="31" viewBox="0 0 31 31" fill="none" xmlns="http://www.w3.org/2000/svg">
<g clip-path="url(#clip0_137_584)">
<path d="M7.81506 23.1733C5.8131 23.1733 4.03232 21.8915 3.38568 19.9832L3.34195 19.8394C3.18945 19.334 3.12556 18.909 3.12556 18.4838V9.95752L0.0918098 20.0844C-0.298371 21.5739 0.590757 23.1181 2.08256 23.5296L21.4197 28.7082C21.661 28.7707 21.9023 28.8007 22.14 28.8007C23.3855 28.8007 24.5235 27.9741 24.8424 26.7559L25.969 23.1733H7.81506Z" fill="#677185"/>
<path d="M11.2541 10.0426C12.6334 10.0426 13.755 8.9208 13.755 7.54143C13.755 6.16205 12.6334 5.04028 11.2541 5.04028C9.8747 5.04028 8.75293 6.16205 8.75293 7.54143C8.75293 8.9208 9.8747 10.0426 11.2541 10.0426Z" fill="#677185"/>
<path d="M26.8855 1.28833H8.12748C6.40441 1.28833 5.00122 2.69152 5.00122 4.41482V18.1705C5.00122 19.8938 6.40441 21.297 8.12748 21.297H26.8855C28.6088 21.297 30.012 19.8938 30.012 18.1705V4.41482C30.012 2.69152 28.6088 1.28833 26.8855 1.28833ZM8.12748 3.78947H26.8855C27.2308 3.78947 27.5108 4.06952 27.5108 4.41482V13.2924L23.5605 8.68277C23.1414 8.19138 22.5349 7.92874 21.8834 7.91386C21.2356 7.91752 20.6279 8.20512 20.2128 8.70292L15.5682 14.2777L14.0551 12.7682C13.1998 11.913 11.8079 11.913 10.9538 12.7682L7.50237 16.2185V4.41482C7.50237 4.06952 7.78241 3.78947 8.12748 3.78947Z" fill="#677185"/>
</g>
<defs>
<clipPath id="clip0_137_584">
<rect width="30.0121" height="30.0121" fill="white"/>
</clipPath>
</defs>
</svg>
