<svg width="57" height="56" viewBox="0 0 57 56" fill="none" xmlns="http://www.w3.org/2000/svg">
<g clip-path="url(#clip0_22_1407)">
<path d="M36.6658 7.99917C36.6658 3.58945 33.0764 0 28.6666 0C24.2569 0 20.6675 3.58945 20.6675 7.99917C20.6675 12.4089 24.2569 15.9983 28.6666 15.9983C33.0764 15.9983 36.6658 12.4089 36.6658 7.99917Z" fill="#289546"/>
<path d="M22.3953 26.0743L24.3267 28H33.0124L34.9438 26.0685C36.276 24.7363 38.0504 23.9975 39.9411 23.9975H42.6696C42.6696 19.5877 39.0801 15.9983 34.6704 15.9983H22.6687C18.259 15.9983 14.6696 19.5877 14.6696 23.9975H17.398C19.2887 23.9975 21.0631 24.7305 22.3953 26.0685V26.0743Z" fill="#289546"/>
<path d="M46.6662 25.9988H39.9353C38.5798 25.9988 37.3057 26.5282 36.3516 27.4823L34.1526 29.6813C33.949 29.8849 33.6814 29.9955 33.3963 29.9955H23.9369C23.6519 29.9955 23.3843 29.8849 23.1807 29.6813L20.9816 27.4823C20.0217 26.5224 18.7535 25.9988 17.398 25.9988H10.667C4.77384 25.9988 0.666626 34.4343 0.666626 41.9971C0.666626 49.56 5.0589 55.9942 10.667 55.9942C14.7568 55.9942 18.3113 51.9626 19.3003 47.995C19.7832 46.0752 21.4994 43.9925 23.4773 43.9925H33.8501C35.8281 43.9925 37.5501 46.0752 38.0271 47.995C39.0219 51.9626 42.5706 55.9942 46.6604 55.9942C52.2685 55.9942 56.6608 49.845 56.6608 41.9971C56.6608 34.1492 52.5536 25.9988 46.6604 25.9988H46.6662ZM15.6643 38.0004H12.6625V41.0023C12.6625 41.555 12.2145 42.0029 11.6618 42.0029C11.1092 42.0029 10.6612 41.555 10.6612 41.0023V38.0004H7.65935C7.10668 38.0004 6.65873 37.5525 6.65873 36.9998C6.65873 36.4471 7.10668 35.9992 7.65935 35.9992H10.6612V32.9973C10.6612 32.4447 11.1092 31.9967 11.6618 31.9967C12.2145 31.9967 12.6625 32.4447 12.6625 32.9973V35.9992H15.6643C16.217 35.9992 16.665 36.4471 16.665 36.9998C16.665 37.5525 16.217 38.0004 15.6643 38.0004ZM44.665 30.0013C45.7703 30.0013 46.6662 30.8972 46.6662 32.0025C46.6662 33.1079 45.7703 34.0038 44.665 34.0038C43.5596 34.0038 42.6637 33.1079 42.6637 32.0025C42.6637 30.8972 43.5596 30.0013 44.665 30.0013ZM40.6683 38.0004C39.563 38.0004 38.667 37.1045 38.667 35.9992C38.667 34.8939 39.563 33.9979 40.6683 33.9979C41.7736 33.9979 42.6695 34.8939 42.6695 35.9992C42.6695 37.1045 41.7736 38.0004 40.6683 38.0004ZM44.665 41.9971C43.5596 41.9971 42.6637 41.1012 42.6637 39.9959C42.6637 38.8905 43.5596 37.9946 44.665 37.9946C45.7703 37.9946 46.6662 38.8905 46.6662 39.9959C46.6662 41.1012 45.7703 41.9971 44.665 41.9971ZM48.6675 38.0004C47.5621 38.0004 46.6662 37.1045 46.6662 35.9992C46.6662 34.8939 47.5621 33.9979 48.6675 33.9979C49.7728 33.9979 50.6687 34.8939 50.6687 35.9992C50.6687 37.1045 49.7728 38.0004 48.6675 38.0004Z" fill="#289546"/>
</g>
<defs>
<clipPath id="clip0_22_1407">
<rect width="56" height="56" fill="white" transform="translate(0.666626)"/>
</clipPath>
</defs>
</svg>
