<svg width="41" height="49" viewBox="0 0 41 49" fill="none" xmlns="http://www.w3.org/2000/svg">
<path d="M37.151 39.0049C36.1641 36.0679 32.2309 34.2294 29.4266 32.997C28.328 32.5159 25.2866 31.6995 24.9211 30.3162C24.7902 29.8179 24.8079 29.348 24.9152 28.8977C24.7461 28.93 24.5746 28.9491 24.3972 28.9491H22.57C21.1113 28.9491 19.926 27.7624 19.926 26.3046C19.926 24.8478 21.1118 23.6635 22.57 23.6635H24.3972C25.0009 23.6635 25.5732 23.8678 26.0348 24.2324C26.7115 24.1422 27.3642 23.9977 27.9728 23.8081C28.772 22.1337 29.3952 20.1316 29.5349 18.4083C30.1312 11.0347 25.611 6.72078 19.1297 7.46656C14.4174 8.00899 11.6024 11.5228 11.2981 16.0465C10.9904 20.6574 12.7 24.0629 14.5159 26.5609C15.3112 27.6531 16.1466 28.3553 16.0182 29.6714C15.8693 31.2276 14.2052 31.6613 13.015 32.1395C11.6048 32.706 10.0858 33.5654 9.36845 33.9628C6.89738 35.3275 4.18523 36.9709 3.57567 39.219C2.22572 44.2014 6.78468 45.7106 10.5484 46.4073C13.7785 47.0032 17.4206 47.0502 20.4165 47.0502C25.8354 47.0502 35.5795 46.8332 37.151 42.7598C37.5978 41.6039 37.4063 39.762 37.151 39.0049Z" fill="#289546"/>
<path d="M25.5537 25.5603C25.3057 25.1825 24.8819 24.9316 24.3982 24.9316H22.571C21.8086 24.9316 21.1936 25.5475 21.1936 26.306C21.1936 27.0675 21.8086 27.6844 22.571 27.6844H24.3982C24.9319 27.6844 25.3846 27.3801 25.613 26.9401C28.1605 26.7397 30.3762 25.9616 31.9315 24.8125C32.2887 25.0428 32.7111 25.1776 33.1668 25.1776H33.2815C34.5515 25.1776 35.5786 24.1496 35.5786 22.878V18.2877C35.5786 17.3733 35.0425 16.5844 34.2693 16.2179C33.9322 8.84685 27.8302 2.9502 20.3763 2.9502C12.9224 2.9502 6.81949 8.84685 6.48384 16.2179C5.70915 16.5849 5.17358 17.3733 5.17358 18.2877V22.878C5.17358 24.1496 6.2016 25.1776 7.46874 25.1776H7.58487C8.85299 25.1776 9.8815 24.1496 9.8815 22.878V18.2877C9.8815 17.3866 9.36063 16.6094 8.60358 16.2336C8.93139 10.0229 14.0852 5.07239 20.3763 5.07239C26.665 5.07239 31.8213 10.0229 32.1476 16.2336C31.3915 16.6099 30.8711 17.3866 30.8711 18.2877V22.878C30.8711 23.1828 30.9304 23.4665 31.0348 23.7316C29.6961 24.6895 27.7474 25.3721 25.5537 25.5603Z" fill="#289546"/>
</svg>
