<svg width="57" height="46" viewBox="0 0 57 46" fill="none" xmlns="http://www.w3.org/2000/svg">
<path d="M41.9619 31.4578C41.0678 25.3802 35.8666 20.866 29.723 20.8352H26.9528C20.8092 20.8616 15.608 25.3758 14.714 31.4578L13.384 40.7459C13.2959 41.3537 13.5029 41.9703 13.9389 42.4018C14.4586 42.9215 17.6559 45.5772 28.3401 45.5772C39.0244 45.5772 42.2129 42.9303 42.7414 42.4018C43.1774 41.9658 43.38 41.3537 43.2963 40.7459L41.9619 31.4578Z" fill="white"/>
<path d="M16.7706 22.2667C14.2514 24.5877 12.6175 27.7057 12.1331 31.0968L11.1686 37.7646C3.43508 37.7117 1.08774 34.9019 0.700182 34.325C0.396303 33.9066 0.272981 33.3781 0.361062 32.8673L0.933583 29.6391C1.95973 23.8434 7.49124 19.9722 13.287 20.9983C14.5113 21.2141 15.6916 21.6457 16.7662 22.2667H16.7706Z" fill="white"/>
<path d="M56.3055 32.8671C56.3936 33.3779 56.2703 33.9064 55.9664 34.3248C55.5744 34.8973 53.2315 37.7115 45.4979 37.7644L44.5334 31.0966C44.0534 27.7055 42.4151 24.5875 39.896 22.2665C44.9915 19.3202 51.5139 21.0598 54.4602 26.1553C55.0856 27.2343 55.5128 28.4102 55.7286 29.6345L56.3011 32.8627L56.3055 32.8671Z" fill="white"/>
<path d="M17.2146 16.5369C15.8845 18.4219 13.7178 19.5405 11.4056 19.5317C7.45078 19.5317 4.24463 16.3255 4.24463 12.3707C4.24463 8.41587 7.45078 5.20972 11.4056 5.20972C12.9558 5.20972 14.462 5.71178 15.704 6.64103C15.4441 7.66277 15.312 8.71094 15.312 9.76791C15.312 12.1549 15.9726 14.4979 17.2146 16.5413V16.5369Z" fill="white"/>
<path d="M52.4259 12.3707C52.4259 16.3211 49.2285 19.5317 45.2737 19.5317H45.2649C42.9572 19.5405 40.786 18.4219 39.4559 16.5369C40.6979 14.4979 41.3541 12.1549 41.3585 9.7635C41.3585 8.71093 41.2308 7.65836 40.9665 6.63662C44.133 4.26284 48.6208 4.90583 50.9946 8.06794C51.9238 9.30548 52.4259 10.8161 52.4259 12.3663V12.3707Z" fill="white"/>
<path d="M28.3359 19.5364C33.7308 19.5364 38.1041 15.163 38.1041 9.76819C38.1041 4.37337 33.7308 0 28.3359 0C22.9411 0 18.5677 4.37337 18.5677 9.76819C18.5677 15.163 22.9411 19.5364 28.3359 19.5364Z" fill="white"/>
</svg>
