<svg width="37" height="37" viewBox="0 0 37 37" fill="none" xmlns="http://www.w3.org/2000/svg">
<g clip-path="url(#clip0_137_654)">
<path d="M18.5 0C8.29869 0 0 8.29869 0 18.5C0 28.7013 8.29869 37 18.5 37C28.7013 37 37 28.7013 37 18.5C37 8.29869 28.7013 0 18.5 0ZM27.2983 28.069C26.9977 28.3696 26.6031 28.5209 26.2084 28.5209C25.8138 28.5209 25.4189 28.3696 25.1185 28.069L17.4101 20.3608C17.1202 20.0726 16.9584 19.6808 16.9584 19.2709V9.25C16.9584 8.39749 17.6489 7.70843 18.5 7.70843C19.3511 7.70843 20.0416 8.39749 20.0416 9.25V18.6327L27.2983 25.8892C27.901 26.4921 27.901 27.4663 27.2983 28.069Z" fill="#677185"/>
</g>
<defs>
<clipPath id="clip0_137_654">
<rect width="37" height="37" fill="white"/>
</clipPath>
</defs>
</svg>
