<svg width="41" height="49" viewBox="0 0 41 49" fill="none" xmlns="http://www.w3.org/2000/svg">
<g clip-path="url(#clip0_22_1455)">
<path d="M20.3669 23.6222C23.5385 23.6222 26.2895 22.4847 28.5307 20.2365C30.7762 17.9883 31.9124 15.2386 31.9124 12.0634C31.9124 8.88813 30.7762 6.13836 28.5307 3.89018C26.2851 1.63753 23.5385 0.5 20.3669 0.5C17.1954 0.5 14.4488 1.63753 12.2032 3.88571C9.95762 6.13389 8.82141 8.88365 8.82141 12.0589C8.82141 15.2341 9.95762 17.9883 12.2032 20.232C14.4488 22.4802 17.1954 23.6177 20.3669 23.6177V23.6222Z" fill="#289546"/>
<path d="M40.5727 37.4114C40.51 36.4754 40.3758 35.4543 40.1835 34.3795C39.9867 33.2957 39.7362 32.2657 39.4365 31.3297C39.1278 30.3623 38.7073 29.404 38.1839 28.4859C37.6427 27.532 37.0075 26.7034 36.2962 26.0227C35.5492 25.3107 34.6366 24.7329 33.5854 24.3164C32.5342 23.8999 31.3711 23.6895 30.1231 23.6895C29.6355 23.6895 29.1614 23.891 28.2443 24.4866C27.6807 24.8539 27.0231 25.2793 26.2895 25.7495C25.6633 26.1481 24.8089 26.5243 23.7576 26.8647C22.7333 27.1961 21.691 27.3663 20.6621 27.3663C19.6333 27.3663 18.5955 27.1961 17.5666 26.8647C16.5154 26.5243 15.6655 26.1481 15.0392 25.7495C14.3101 25.2838 13.6525 24.8583 13.0844 24.4866C12.1719 23.891 11.6977 23.6895 11.2101 23.6895C9.96207 23.6895 8.79902 23.8999 7.7478 24.3164C6.69211 24.7329 5.77956 25.3062 5.037 26.0227C4.32575 26.7034 3.69054 27.532 3.14927 28.4859C2.63037 29.404 2.20541 30.3623 1.89676 31.3297C1.59705 32.2657 1.34655 33.2912 1.15419 34.3795C0.961844 35.4543 0.832119 36.4754 0.76502 37.4159C0.702394 38.334 0.671082 39.2879 0.671082 40.2508C0.671082 42.7587 1.46732 44.7829 3.03744 46.2832C4.58519 47.7611 6.63843 48.509 9.13004 48.509H32.2166C34.7082 48.509 36.7614 47.7611 38.3092 46.2832C39.8793 44.7874 40.6756 42.7587 40.6756 40.2508C40.6756 39.2834 40.6442 38.3295 40.5771 37.4159L40.5727 37.4114Z" fill="#289546"/>
</g>
<defs>
<clipPath id="clip0_22_1455">
<rect width="40" height="48" fill="white" transform="translate(0.666626 0.5)"/>
</clipPath>
</defs>
</svg>
