<svg width="44" height="34" viewBox="0 0 44 34" fill="none" xmlns="http://www.w3.org/2000/svg">
<path d="M38.9582 0.5H5.04178C2.26056 0.5 0 2.76056 0 5.54178V28.4582C0 31.2394 2.26056 33.5 5.04178 33.5H38.9582C41.7394 33.5 44 31.2394 44 28.4582V5.54178C44 2.76056 41.7394 0.5 38.9582 0.5ZM13.75 7.83322C16.2764 7.83322 18.3332 9.89035 18.3332 12.4168C18.3332 14.9429 16.2764 17 13.75 17C11.2236 17 9.16678 14.9429 9.16678 12.4168C9.16678 9.89035 11.2236 7.83322 13.75 7.83322ZM22 24.7918C22 25.5508 21.384 26.1668 20.625 26.1668H6.875C6.116 26.1668 5.5 25.5508 5.5 24.7918V23.875C5.5 21.0938 7.76056 18.8332 10.5418 18.8332H16.9582C19.7394 18.8332 22 21.0938 22 23.875V24.7918ZM37.125 26.1668H27.0418C26.2828 26.1668 25.6668 25.5508 25.6668 24.7918C25.6668 24.0328 26.2828 23.4168 27.0418 23.4168H37.125C37.884 23.4168 38.5 24.0328 38.5 24.7918C38.5 25.5508 37.884 26.1668 37.125 26.1668ZM37.125 18.8332H27.0418C26.2828 18.8332 25.6668 18.2172 25.6668 17.4582C25.6668 16.6992 26.2828 16.0832 27.0418 16.0832H37.125C37.884 16.0832 38.5 16.6992 38.5 17.4582C38.5 18.2172 37.884 18.8332 37.125 18.8332ZM37.125 11.5H27.0418C26.2828 11.5 25.6668 10.884 25.6668 10.125C25.6668 9.366 26.2828 8.75 27.0418 8.75H37.125C37.884 8.75 38.5 9.366 38.5 10.125C38.5 10.884 37.884 11.5 37.125 11.5Z" fill="#677185"/>
</svg>
