<svg width="44" height="47" viewBox="0 0 44 47" fill="none" xmlns="http://www.w3.org/2000/svg">
<path d="M31.3939 18.6076C32.1935 16.9745 33.5796 15.7467 35.3032 15.1541C36.0244 14.9055 36.7677 14.8101 37.5076 14.8067V5.1087C37.5076 2.2921 35.2129 0 32.393 0H5.11468C2.29479 0 0 2.2921 0 5.1087V39.1667C0 41.9833 2.29479 44.2754 5.11468 44.2754H22.0767L21.8925 43.7407C21.1509 41.5797 21.2958 39.2705 22.2966 37.2288L31.3939 18.6076ZM6.81957 10.2174H27.2783C28.2211 10.2174 28.9832 10.9803 28.9832 11.9203C28.9832 12.8603 28.2211 13.6232 27.2783 13.6232H6.81957C5.87677 13.6232 5.11468 12.8603 5.11468 11.9203C5.11468 10.9803 5.87677 10.2174 6.81957 10.2174ZM6.81957 17.029H25.5734C26.5162 17.029 27.2783 17.7919 27.2783 18.7319C27.2783 19.6719 26.5162 20.4348 25.5734 20.4348H6.81957C5.87677 20.4348 5.11468 19.6719 5.11468 18.7319C5.11468 17.7919 5.87677 17.029 6.81957 17.029ZM18.7538 34.058H6.81957C5.87677 34.058 5.11468 33.2951 5.11468 32.3551C5.11468 31.4151 5.87677 30.6522 6.81957 30.6522H18.7538C19.6966 30.6522 20.4587 31.4151 20.4587 32.3551C20.4587 33.2951 19.6966 34.058 18.7538 34.058ZM6.81957 27.2464C5.87677 27.2464 5.11468 26.4835 5.11468 25.5435C5.11468 24.6035 5.87677 23.8406 6.81957 23.8406H22.1636C23.1064 23.8406 23.8685 24.6035 23.8685 25.5435C23.8685 26.4835 23.1064 27.2464 22.1636 27.2464H6.81957ZM43.6521 24.5813L34.5514 43.2093C33.9495 44.4371 32.9078 45.3567 31.6172 45.7995L28.3933 46.9063C28.2109 46.9693 28.0216 47 27.8392 47C27.1317 47 26.4702 46.5572 26.2281 45.8505L25.1182 42.6304C24.6732 41.3362 24.7602 39.95 25.3603 38.7256L34.461 20.101C34.8582 19.2836 35.5538 18.6706 36.4148 18.3743C37.2741 18.078 38.1998 18.1325 39.0182 18.5343L42.0836 20.0278C42.9019 20.4263 43.5157 21.121 43.8123 21.981C44.109 22.841 44.0527 23.7639 43.6521 24.5813Z" fill="#677185"/>
</svg>
